<svg width="226" height="39" viewBox="0 0 226 39" fill="none" xmlns="http://www.w3.org/2000/svg">
<path d="M31.2749 7.84277C27.4022 7.84277 21.9311 8.16681 19.1352 10.9612C17.9247 12.1717 17.3202 14.1451 17.4771 16.3786C17.4975 16.6736 17.6937 16.925 17.9756 17.018C18.256 17.1096 18.5641 17.0238 18.7559 16.7986C20.3108 14.9691 22.2435 13.5029 24.5046 12.4406C24.6964 12.349 24.9231 12.3418 25.1295 12.4144C25.3111 12.4798 25.4535 12.6033 25.5276 12.7618C25.6816 13.0873 25.6322 13.516 25.1207 13.7572C25.0917 13.7717 25.0655 13.7906 25.0365 13.8037C25.0263 13.808 25.0147 13.8066 25.006 13.811C19.4346 16.4296 16.6954 20.9983 15.4514 25.6963C14.5446 19.814 12.6294 16.351 10.8202 14.2251C9.51095 12.5279 8.22341 11.6283 7.47943 11.1197C7.34136 11.0253 6.92435 10.7405 6.7514 10.5675C6.46803 10.2841 6.46803 9.82348 6.7514 9.54011C7.03477 9.25817 7.49687 9.25817 7.81218 9.57206C7.88923 9.64038 8.01272 9.72757 8.16966 9.83219L8.29902 9.91938C9.35108 10.6401 11.31 11.9785 13.0479 14.8601C13.2034 15.1173 13.5042 15.2554 13.7963 15.2001C14.0928 15.1478 14.3252 14.9197 14.3834 14.6247C14.7627 12.6877 14.5927 9.81326 12.8649 8.08547C10.069 5.29248 4.59789 4.96844 0.726671 4.96844C0.32553 4.96838 0 5.29391 0 5.69498C0 9.56763 0.324032 15.0388 3.11846 17.8347C4.28387 19.0001 6.08147 19.5233 7.86736 19.5233C9.32486 19.5233 10.7533 19.1585 11.8476 18.5264C13.3399 21.6187 14.5316 26.2383 14.5316 33.305C14.5316 33.7061 14.8571 34.0316 15.2582 34.0316C15.6592 34.0316 15.9848 33.7061 15.9848 33.305C15.9848 29.3626 16.6605 24.6311 19.173 20.7366C20.18 21.7204 21.9137 22.3438 23.8347 22.4019C23.9306 22.4049 24.0251 22.4063 24.1195 22.4063C26.0711 22.4063 27.796 21.7945 28.8815 20.7075C31.6773 17.9117 31.9999 12.4405 31.9999 8.56781C32.0015 8.16681 31.6774 7.84277 31.2749 7.84277Z" fill="#00B307"/>
<path d="M53.952 30.5L48.832 21.604H46.048V30.5H42.4V8.26H50.08C51.7867 8.26 53.2267 8.55866 54.4 9.156C55.5947 9.75333 56.48 10.5533 57.056 11.556C57.6533 12.5587 57.952 13.6787 57.952 14.916C57.952 16.3667 57.5253 17.6893 56.672 18.884C55.84 20.0573 54.5493 20.8573 52.8 21.284L58.304 30.5H53.952ZM46.048 18.692H50.08C51.4453 18.692 52.4693 18.3507 53.152 17.668C53.856 16.9853 54.208 16.068 54.208 14.916C54.208 13.764 53.8667 12.868 53.184 12.228C52.5013 11.5667 51.4667 11.236 50.08 11.236H46.048V18.692ZM77.6268 12.868V30.5H73.9788V28.42C73.4028 29.1453 72.6454 29.7213 71.7068 30.148C70.7894 30.5533 69.8081 30.756 68.7628 30.756C67.3761 30.756 66.1281 30.468 65.0188 29.892C63.9308 29.316 63.0668 28.4627 62.4268 27.332C61.8081 26.2013 61.4988 24.836 61.4988 23.236V12.868H65.1148V22.692C65.1148 24.2707 65.5094 25.4867 66.2988 26.34C67.0881 27.172 68.1654 27.588 69.5308 27.588C70.8961 27.588 71.9734 27.172 72.7628 26.34C73.5734 25.4867 73.9788 24.2707 73.9788 22.692V12.868H77.6268ZM85.128 15.428C85.6613 14.532 86.3653 13.8387 87.24 13.348C88.136 12.836 89.192 12.58 90.408 12.58V16.356H89.48C88.0507 16.356 86.9627 16.7187 86.216 17.444C85.4907 18.1693 85.128 19.428 85.128 21.22V30.5H81.48V12.868H85.128V15.428ZM91.5852 21.604C91.5852 19.8333 91.9479 18.2653 92.6732 16.9C93.4199 15.5347 94.4226 14.4787 95.6812 13.732C96.9612 12.964 98.3692 12.58 99.9052 12.58C101.292 12.58 102.497 12.8573 103.521 13.412C104.567 13.9453 105.399 14.6173 106.017 15.428V12.868H109.697V30.5H106.017V27.876C105.399 28.708 104.556 29.4013 103.489 29.956C102.423 30.5107 101.207 30.788 99.8412 30.788C98.3266 30.788 96.9399 30.404 95.6812 29.636C94.4226 28.8467 93.4199 27.7587 92.6732 26.372C91.9479 24.964 91.5852 23.3747 91.5852 21.604ZM106.017 21.668C106.017 20.452 105.761 19.396 105.249 18.5C104.759 17.604 104.108 16.9213 103.297 16.452C102.487 15.9827 101.612 15.748 100.673 15.748C99.7346 15.748 98.8599 15.9827 98.0492 16.452C97.2386 16.9 96.5772 17.572 96.0652 18.468C95.5746 19.3427 95.3292 20.388 95.3292 21.604C95.3292 22.82 95.5746 23.8867 96.0652 24.804C96.5772 25.7213 97.2386 26.4253 98.0492 26.916C98.8812 27.3853 99.7559 27.62 100.673 27.62C101.612 27.62 102.487 27.3853 103.297 26.916C104.108 26.4467 104.759 25.764 105.249 24.868C105.761 23.9507 106.017 22.884 106.017 21.668ZM117.177 6.82V30.5H113.529V6.82H117.177ZM144.43 8.26V30.5H140.782V15.268L133.998 30.5H131.47L124.654 15.268V30.5H121.006V8.26H124.942L132.75 25.7L140.526 8.26H144.43ZM147.049 21.604C147.049 19.8333 147.412 18.2653 148.137 16.9C148.884 15.5347 149.886 14.4787 151.145 13.732C152.425 12.964 153.833 12.58 155.369 12.58C156.756 12.58 157.961 12.8573 158.985 13.412C160.03 13.9453 160.862 14.6173 161.481 15.428V12.868H165.161V30.5H161.481V27.876C160.862 28.708 160.02 29.4013 158.953 29.956C157.886 30.5107 156.67 30.788 155.305 30.788C153.79 30.788 152.404 30.404 151.145 29.636C149.886 28.8467 148.884 27.7587 148.137 26.372C147.412 24.964 147.049 23.3747 147.049 21.604ZM161.481 21.668C161.481 20.452 161.225 19.396 160.713 18.5C160.222 17.604 159.572 16.9213 158.761 16.452C157.95 15.9827 157.076 15.748 156.137 15.748C155.198 15.748 154.324 15.9827 153.513 16.452C152.702 16.9 152.041 17.572 151.529 18.468C151.038 19.3427 150.793 20.388 150.793 21.604C150.793 22.82 151.038 23.8867 151.529 24.804C152.041 25.7213 152.702 26.4253 153.513 26.916C154.345 27.3853 155.22 27.62 156.137 27.62C157.076 27.62 157.95 27.3853 158.761 26.916C159.572 26.4467 160.222 25.764 160.713 24.868C161.225 23.9507 161.481 22.884 161.481 21.668ZM172.64 15.428C173.174 14.532 173.878 13.8387 174.752 13.348C175.648 12.836 176.704 12.58 177.92 12.58V16.356H176.992C175.563 16.356 174.475 16.7187 173.728 17.444C173.003 18.1693 172.64 19.428 172.64 21.22V30.5H168.992V12.868H172.64V15.428ZM187.29 21.7L195.418 30.5H190.49L183.962 22.916V30.5H180.314V6.82H183.962V20.58L190.362 12.868H195.418L187.29 21.7ZM213.233 21.252C213.233 21.9133 213.19 22.5107 213.105 23.044H199.633C199.739 24.452 200.262 25.5827 201.201 26.436C202.139 27.2893 203.291 27.716 204.657 27.716C206.619 27.716 208.006 26.8947 208.817 25.252H212.753C212.219 26.8733 211.249 28.2067 209.841 29.252C208.454 30.276 206.726 30.788 204.657 30.788C202.971 30.788 201.457 30.4147 200.113 29.668C198.79 28.9 197.745 27.8333 196.977 26.468C196.23 25.0813 195.857 23.4813 195.857 21.668C195.857 19.8547 196.219 18.2653 196.945 16.9C197.691 15.5133 198.726 14.4467 200.049 13.7C201.393 12.9533 202.929 12.58 204.657 12.58C206.321 12.58 207.803 12.9427 209.105 13.668C210.406 14.3933 211.419 15.4173 212.145 16.74C212.87 18.0413 213.233 19.5453 213.233 21.252ZM209.425 20.1C209.403 18.756 208.923 17.6787 207.985 16.868C207.046 16.0573 205.883 15.652 204.497 15.652C203.238 15.652 202.161 16.0573 201.265 16.868C200.369 17.6573 199.835 18.7347 199.665 20.1H209.425ZM220.118 15.844V25.604C220.118 26.2653 220.268 26.7453 220.566 27.044C220.886 27.3213 221.42 27.46 222.166 27.46H224.406V30.5H221.526C219.884 30.5 218.625 30.116 217.75 29.348C216.876 28.58 216.438 27.332 216.438 25.604V15.844H214.358V12.868H216.438V8.484H220.118V12.868H224.406V15.844H220.118Z" fill="#002603"/>
</svg>
